<?xml version="1.0" encoding="UTF-8"?>
<svg viewBox="0 0 12 7" version="1.1" xmlns="http://www.w3.org/2000/svg" xmlns:xlink="http://www.w3.org/1999/xlink">
	<g stroke="none" stroke-width="1" fill="none" fill-rule="evenodd">
		<g transform="translate(-435.000000, -328.000000)" fill="#A0948A">
			<path d="M441.790723,334.590422 L446.604201,329.776945 C447.041434,329.339711 447.088978,328.659002 446.698454,328.268478 C446.305207,327.875231 445.632566,327.920152 445.189987,328.362731 L440.983466,332.569252 L436.776945,328.362731 C436.339711,327.925498 435.659002,327.877953 435.268478,328.268478 C434.875231,328.661725 434.920152,329.334366 435.362731,329.776945 L440.177479,334.591692 C440.204598,334.629196 440.23492,334.664896 440.268478,334.698454 C440.468069,334.898045 440.739634,334.984763 441.016563,334.963903 C441.270894,334.967497 441.516256,334.880652 441.698454,334.698454 C441.732482,334.664425 441.76323,334.628305 441.790723,334.590422 Z" id="Combined-Shape"></path>
		</g>
	</g>
</svg>